<svg width="122" height="21" xmlns="http://www.w3.org/2000/svg" fill="none">

 <g>
  <title>Layer 1</title>
  <path id="svg_2" fill="white" d="m66.2858,15l0,-11.63639l4.5909,0c0.8826,0 1.6345,0.16856 2.2557,0.50568c0.6212,0.33333 1.0947,0.79735 1.4204,1.39204c0.3296,0.59091 0.4943,1.27273 0.4943,2.04546c0,0.77272 -0.1666,1.45454 -0.5,2.04545c-0.3333,0.59091 -0.8162,1.05116 -1.4488,1.38066c-0.6288,0.3296 -1.3902,0.4943 -2.2841,0.4943l-2.9261,0l0,-1.97155l2.5284,0c0.4734,0 0.8636,-0.08144 1.1704,-0.24432c0.3106,-0.16666 0.5417,-0.39583 0.6932,-0.6875c0.1553,-0.29545 0.233,-0.63447 0.233,-1.01704c0,-0.38637 -0.0777,-0.72349 -0.233,-1.01137c-0.1515,-0.29166 -0.3826,-0.51704 -0.6932,-0.67613c-0.3106,-0.16288 -0.7045,-0.24432 -1.1818,-0.24432l-1.6591,0l0,9.62503l-2.4602,0zm11.0213,0l-2.6364,0l4.0171,-11.63639l3.1704,0l4.0114,11.63639l-2.6364,0l-2.9148,-8.9773l-0.0909,0l-2.9204,8.9773zm-0.1648,-4.5739l6.2273,0l0,1.9205l-6.2273,0l0,-1.9205zm8.2585,-7.06249l2.7557,0l2.6534,5.01136l0.1137,0l2.6534,-5.01136l2.7557,0l-4.2444,7.52269l0,4.1137l-2.4431,0l0,-4.1137l-4.2444,-7.52269z"/>
  <path id="svg_3" fill="white" d="m106.149,13.8617l-0.003,0.0045l-0.003,0.0045c-0.178,0.252 -0.577,0.3261 -0.889,0.1058c-0.25,-0.1763 -0.325,-0.5691 -0.112,-0.8795c0.317,-0.4043 0.547,-0.8769 0.699,-1.339c0.157,-0.481 0.23,-1.0275 0.228,-1.5636c-0.003,-0.53603 -0.082,-1.08179 -0.245,-1.56108c-0.156,-0.46038 -0.391,-0.93052 -0.713,-1.33138c-0.216,-0.30818 -0.145,-0.70178 0.103,-0.88072c0.309,-0.22354 0.709,-0.15373 0.889,0.09638l0.004,0.00449l0.003,0.00441c0.4,0.52754 0.728,1.11367 0.924,1.68873c0.207,0.67647 0.338,1.33084 0.342,1.97227c0.003,0.6749 -0.061,1.3138 -0.309,1.9427c-0.27,0.6849 -0.531,1.2098 -0.918,1.7315zm2.893,1.2528l0.007,-0.0111l0.008,-0.0115c0.886,-1.4206 1.398,-3.1349 1.388,-4.9208c-0.009,-1.78541 -0.539,-3.49373 -1.44,-4.90465c-0.195,-0.30976 -0.108,-0.67601 0.222,-0.91385c0.221,-0.15973 0.636,-0.10317 0.882,0.22692c1.018,1.61463 1.633,3.56647 1.643,5.58468c0.011,2.087 -0.582,3.9755 -1.583,5.6019c-0.232,0.3189 -0.587,0.4082 -0.892,0.2275c-0.332,-0.2429 -0.392,-0.6566 -0.235,-0.8791zm5.19,-12.65727l0.009,0.01725l0.01,0.01649c1.379,2.24821 2.145,4.84145 2.16,7.64843c0.015,2.8056 -0.723,5.4057 -2.076,7.6678c-0.208,0.3337 -0.558,0.4278 -0.914,0.2625c-0.323,-0.2107 -0.41,-0.5599 -0.241,-0.9126c1.152,-2.0447 1.867,-4.4541 1.854,-7.0104c-0.014,-2.54495 -0.679,-4.95053 -1.931,-6.99534c-0.169,-0.34915 -0.085,-0.69688 0.234,-0.91c0.386,-0.18412 0.761,-0.04916 0.895,0.21587zm4.083,-2.13958l0.006,0.01179l0.007,0.01143c1.671,2.88853 2.653,6.19097 2.672,9.77403c0.019,3.5794 -0.926,6.889 -2.563,9.793c-0.208,0.3299 -0.556,0.4223 -0.91,0.2577c-0.322,-0.21 -0.41,-0.5577 -0.243,-0.9092c1.577,-2.6916 2.427,-5.8101 2.409,-9.1345c-0.018,-3.33304 -0.975,-6.4394 -2.504,-9.1045c-0.192,-0.38905 -0.057,-0.77009 0.211,-0.90558c0.392,-0.19887 0.779,-0.06387 0.915,0.20583z" clip-rule="evenodd" fill-rule="evenodd"/>
  <text transform="matrix(0.717337 0 0 0.711597 0.130651 1.222)" stroke="null" xml:space="preserve" text-anchor="start" font-family="Noto Sans JP" font-size="24" stroke-width="0" id="svg_5" y="18.98955" x="-1.57618" fill="#999999">THIAGO</text>
 </g>
</svg>